<?xml version="1.0" encoding="utf-8"?>
<!-- Generator: Adobe Illustrator 23.0.1, SVG Export Plug-In . SVG Version: 6.00 Build 0)  -->
<svg version="1.1" id="Layer_1" xmlns="http://www.w3.org/2000/svg" xmlns:xlink="http://www.w3.org/1999/xlink" x="0px" y="0px"
	 viewBox="0 0 2209 476" style="enable-background:new 0 0 2209 476;" xml:space="preserve">
<style type="text/css">
	.st0{fill:#FFFFFF;}
	.st1{fill:none;}
	.st2{fill:#5EA40C;}
	.st3{font-family:'ArialMT';}
	.st4{font-size:180px;}
</style>
<g transform="translate(0.000000,476.000000) scale(0.100000,-0.100000)">
	<path class="st0" d="M16372,4455c-39-17-151-121-163-152c-4-12-18-23-31-25s-28-14-35-29c-7-14-45-55-85-90s-102-92-138-125
		c-36-34-94-88-129-120c-36-33-76-71-90-85c-14-15-42-38-61-51c-50-33-80-61-80-73c0-5-34-43-75-84s-77-82-80-91s-17-22-30-28
		c-14-7-25-20-25-31c0-21-14-34-40-38c-8-1-22-12-30-25c-8-12-24-31-35-41s-28-26-39-35c-10-9-30-35-43-56c-14-22-38-50-54-63
		c-15-13-40-50-55-81s-51-84-80-117c-30-33-54-69-54-81c0-11-9-29-20-39s-20-31-20-46c0-32-30-85-77-136c-18-19-33-39-33-44
		c0-9-60-100-72-109c-4-3-19-31-33-63c-15-31-31-55-36-51c-14,8-82-19-100-41c-16-18-21-19-75-7c-48,10-60,9-73-2c-9-8-38-23-64-35
		s-51-28-54-36c-9-26-31-16-42,18c-13,38-62,71-92,62c-11-4-51-1-90,5c-59,10-75,10-110-4c-21-9-53-16-70-16c-20,0-32-6-37-20
		c-11-30-72-70-107-70c-19,0-39-8-50-20c-9-10-33-24-52-31c-34-11-35-12-28-54c11-74,41-148,64-157c12-4,21-12,21-18
		c0-16,62-50,91-50s180,75,191,95c5,7,17,11,28,8c12-3,22,1,26,11c11,29,42,17,74-29c48-70,63-76,161-69c65,5,93,12,122,31
		c22,13,45,22,52,19c16-6,9-46-10-61c-14-12-28-50-31-85c-3-45-26-144-47-205c-13-36-22-92-24-140c-2-44-6-100-9-125s0-79,6-120
		s12-84,13-95c9-57,21-95,33-106c8-6,18-28,24-49s21-45,35-54s25-26,25-37s6-32,14-47c34-64,232-224,301-244c22-6,50-20,62-31
		c17-15,26-17,36-8c8,6,27,8,46,5c49-10,39,17-33,88s-104,96-159,125c-20,12-45,31-56,44c-71,93-160,314-140,351c7,13,7,35-2,72
		c-17,77,3,269,34,317c8,13,17,49,21,80c3,30,15,81,26,114c11,32,20,67,20,78s8,34,19,51c10,17,22,42,26,56c8,29,24,66,56,135
		c13,28,26,57,29,65c10,28,52,90,61,90c5,0,9,11,9,25s7,28,15,31s20,23,26,45c7,21,25,50,40,65c16,15,29,33,29,39c0,7,9,20,20,30
		s20,24,20,30c0,7,16,29,35,49c19,21,35,43,35,50s9,21,20,31s20,24,20,32s13,22,30,31c16,9,41,37,55,62c22,38,87,121,152,195
		c10,10,26,32,35,47c10,15,24,28,32,28s20,16,26,35s15,35,18,35c4,0,45,38,92,84c129,128,149,147,196,194c23,23,50,42,59,42
		s24,13,33,30c9,16,20,30,24,30c8,0,136,109,157,134c39,47,259,246,272,246c4,0,11,9,14,20c4,11,21,26,39,34c17,7,65,48,106,90
		s80,76,86,76s18,7,25,16c8,9,31,27,51,40c21,13,49,43,64,65l26,41l-31,63c-16,35-35,66-41,70c-7,4-37,9-68,12c-30,2-63,8-73,13
		C16416,4473,16412,4472,16372,4455z"/>
	<path class="st0" d="M4755,4419c-27-4-91-12-141-18c-51-6-103-15-116-20c-14-5-30-6-36-2c-12,7-257-35-284-50c-10-5-24-6-31-3
		c-8,3-31-2-52-10c-20-9-41-14-45-11c-7,4-78-7-210-35c-30-7-60-16-66-21s-19-7-28-3c-9,3-22,1-29-4c-7-6-44-16-82-22
		c-39-6-81-14-95-19s-56-14-95-21c-38-7-102-23-142-36c-39-13-79-21-88-18c-8,4-23,0-33-8c-9-8-44-23-77-32c-165-49-192-55-221-56
		c-17,0-61-14-98-30c-37-17-87-33-111-37c-24-3-52-14-61-24c-9-11-27-19-39-19s-34-9-48-20s-47-23-74-26c-60-8-80-18-88-45
		c-6-16-13-20-36-17c-20,3-34-1-46-14c-9-10-25-18-36-18s-29-8-39-17s-36-23-56-31c-34-13-177-50-213-55c-8-1-23-10-33-19
		c-10-10-26-18-37-18s-37-12-59-26c-28-18-47-24-64-20c-19,5-29,0-44-18c-10-14-37-32-58-42c-100-42-254-112-276-124
		c-10-6-23-10-29-10c-5,0-26-12-45-26c-21-17-41-24-54-21s-28-2-38-13c-22-23-103-65-120-61c-7,1-22-9-33-23s-29-26-39-26
		c-9,0-23-7-31-16s-21-13-35-10c-14,4-24,1-28-10c-4-10-13-13-26-9s-22,1-26-9c-3-9-16-16-28-16s-27-9-34-20s-18-20-26-20
		c-7,0-21-9-30-19c-11-12-25-17-38-13c-13,3-24-1-30-12c-5-9-20-21-33-26c-39-15-57-52-50-103c5-34,17-54,56-94c58-60,109-74,163-43
		c18,10,47,21,64,25c18,3,34,11,37,16c4,5,17,9,30,9s28,6,32,14c12,21,48,36,70,30c15-4,23,0,28,15c4,12,29,32,58,46s86,46,127,70
		s81,44,89,45c7,0,39,15,70,34c31,18,79,43,106,55c116,52,161,75,184,92c13,11,36,19,51,19s33,7,40,15s23,15,36,15c12,0,25,4,29,10
		c6,9,246,130,259,130c4,0,45,18,92,40s91,40,98,40c8,0,45,14,82,31c38,17,78,34,89,39c47,18,130,55,135,60c8,8,71,27,113,35
		c24,4,43,15,54,31c12,19,22,24,39,20c15-4,43,3,76,19c28,14,63,25,76,25s56,11,95,23c178,59,206,67,224,67c10,0,28,7,40,15
		c14,10,32,13,47,9c15-3,36,0,53,10c15,8,53,19,83,25c119,22,167,32,203,46c20,8,51,15,67,15s32,5,35,10c3,6,26,10,51,10s53,4,62,9
		s67,16,127,26c61,9,122,23,136,31c23,12,100,21,249,29c25,1,52,5,60,8c24,9,170,29,235,32c33,2,92,6,130,9c146,11,258-32,257-101
		c0-44-13-86-32-108c-10-11-25-33-33-50c-14-26-44-58-171-181c-17-17-59-53-91-81c-53-43-79-62-187-135c-15-10-30-18-33-18
		c-4,0-32-19-63-43s-91-63-132-87c-85-49-98-57-158-100c-23-16-51-30-61-30c-9,0-27-11-39-25s-32-25-45-25c-12,0-39-11-59-25
		s-44-25-52-25s-18-5-21-10c-8-13-89-50-109-50c-8,0-35-16-60-35c-26-19-51-35-57-35s-36-13-66-30c-30-16-60-30-68-30
		c-7,0-15-7-19-15c-3-8-14-15-25-15s-23-4-26-10c-9-14-108-60-130-60c-10,0-26-6-34-13c-9-7-36-22-61-32c-25-11-47-22-50-26
		s-14-8-25-10c-11-3-26-18-34-34c-21-46-42-65-71-65c-14,0-35-7-46-15c-10-8-27-15-37-15s-50-16-88-35c-39-19-85-35-104-35
		s-37-4-40-10c-3-5-17-10-30-10c-12,0-25-7-29-15c-3-8-16-15-30-15s-28-5-31-10c-3-6-17-7-31-4c-14,4-24,2-24-5c0-6-12-11-27-11
		s-37-10-50-22c-15-14-48-26-91-34c-37-7-104-23-149-35c-86-22-113-21-113,7c0,18,54,111,74,129c7,5,25,29,40,53c16,23,34,42,40,42
		s20,13,31,29c11,15,41,53,67,82c64,72,140,168,162,201c10,15,34,37,53,49s45,39,58,59c13,21,32,41,42,45c19,6,56,53,75,98
		c7,15,20,27,29,27c21,0,99,75,99,96c0,8,11,19,24,24s36,25,51,44c15,20,35,36,45,36c9,0,22,11,28,24c5,13,32,41,59,62
		c26,21,53,43,58,49c11,13,108,96,184,157c25,21,53,38,62,38c34,0,39,58,8,86c-15,14-24,16-37,7c-12-7-24-7-40,0c-16,8-32,7-56-1
		c-18-7-40-12-50-12c-9,0-19-7-23-15c-3-9-22-24-42-34c-20-11-47-31-60-45c-14-14-35-26-48-26s-29-10-39-25c-9-14-25-25-35-25
		c-28,0-88-33-95-52c-3-10-10-18-16-18c-5,0-30-18-55-40s-56-40-68-40s-28-7-35-15s-19-15-27-15c-7,0-35-21-61-46s-60-59-77-75
		c-16-16-36-29-42-29c-7,0-13-4-13-9c0-6-37-48-82-96c-88-91-227-238-377-397c-50-53-91-101-91-106c0-4-13-21-28-38
		c-26-26-120-132-200-224c-17-19-55-64-84-100c-40-48-62-66-83-68c-16-2-35-12-43-23s-25-19-41-19s-34-7-41-15s-21-15-31-15
		c-11,0-28-9-38-19c-11-11-31-27-45-36c-29-19-34-50-10-59c9-3,33-6,55-6c43,0,45-3,24-40c-20-35-18-68,5-80c11-6,23-23,26-38
		c9-35,70-90,110-98c42-8,102,18,114,50c5,14,20,28,34,32c14,3,28,14,31,24c6,18,85,89,122,108c12,7,31,12,42,12c32,0,84-38,101-74
		c11-23,24-32,54-38c33-7,41-5,54,13c12,17,21,20,50,15c21-3,42-1,50,6c16,14,37,18,121,23c42,2,72,10,90,22c38,28,173,24,205-6
		c12-12,30-21,39-21s27-10,39-23c28-27,133-82,177-92c20-4,37-2,46,5c11,9,18,10,29,1c10-9,16-8,26,4c9,11,17,12,31,4
		c21-11,145,6,166,23c6,5,18,8,25,6c16-3,108,43,108,54c0,5,7,8,15,8c19,0,55,39,55,61c0,9-9,19-20,22c-12,3-20,14-20,26
		c0,42-124,86-171,60c-14-7-24-7-33,0c-12,10-132,8-224-5c-28-3-49-1-59,7c-17,15-44,31-88,53c-16,8-41,24-55,35c-24,19-24,20-7,39
		c18,19,28,23,114,42c23,5,60,20,82,34c21,14,42,22,45,19c3-4,16-1,29,5c53,27,102,42,133,42c18,0,35,4,39,9c3,5,20,13,38,16
		c17,4,48,19,67,34s52,33,74,40c21,7,54,24,73,37c20,13,44,24,53,24c16,0,64,18,100,39c19,10,69,32,139,61c29,12,71,35,94,51
		c22,16,44,29,49,29c6,0,23,9,38,20c16,11,35,17,44,14c9-4,18,0,22,9c3,8,25,20,49,27c25,7,50,19,56,26c6,8,18,14,25,14
		c8,0,39,14,69,31s58,28,63,25s16,4,25,15c9,10,23,19,31,19c7,0,19,7,26,15c8,10,17,12,30,5c12-6,24-4,40,7c13,9,54,32,91,50
		c38,18,70,37,73,42c3,4,26,14,52,21c25,7,51,21,57,32c7,10,19,18,28,18s22,6,28,14s33,23,59,34s58,32,71,46c14,14,30,26,36,26
		c7,0,20,9,30,20s24,20,32,20c7,0,13,7,13,15s10,20,22,26c13,7,39,27,58,46c19,18,40,33,45,33c12,0,103,87,190,180
		c68,72,115,147,115,181c0,12,6,30,13,38c8,9,20,32,27,51s20,43,28,52c22,27,27,100,8,136c-9,17-16,41-16,54c0,50-83,181-122,194
		c-13,4-35,16-49,27c-53,38-128,56-264,62c-71,3-148,7-170,9C4823,4425,4783,4423,4755,4419z"/>
	<path class="st0" d="M6680,3990c-14-4-46-5-72-2c-27,3-48,1-48-4s-27-29-60-53c-54-40-167-155-270-276c-23-27-58-66-79-85
		c-20-19-56-60-81-90c-25-29-62-72-83-95c-58-62-110-125-153-185c-21-30-56-71-76-90c-20-20-66-76-102-126c-36-49-72-98-81-109
		c-8-11-25-33-37-50c-13-16-35-40-50-53s-36-43-47-67c-10-24-29-48-40-54c-12-7-21-22-21-35s-7-26-15-30c-8-3-20-17-25-31
		s-14-25-19-25s-24-26-42-57c-18-32-45-74-60-93c-15-20-35-52-45-73c-10-20-21-37-24-37c-4,0-27-25-51-55s-50-55-57-55
		c-8,0-10-8-6-25c4-16,2-25-5-25s-19-16-27-35s-21-35-29-35s-23-15-32-34c-51-98-76-142-88-156c-17-20-65-112-65-125
		c0-6-10-21-22-35c-13-14-36-51-53-83c-16-32-36-68-42-80c-7-12-13-30-13-40s-5-28-11-39c-36-67-65-371-39-403c5-5,11-27,15-49
		c28-149,205-302,390-337c61-12,59-12,115-5c25,3,69,1,99-4c43-8,58-7,70,4c21,18,88,30,96,16c3-5,21,5,41,25c29,29,33,38,24,55
		c-6,11-17,20-25,20s-19,9-24,19c-6,10-25,24-42,30c-40,14-126,14-134,1c-4-7-12-7-25,0c-10,5-34,10-53,10c-53,0-167,46-205,82
		c-55,54-73,99-75,192c-1,53,4,101,16,141c10,33,25,85,34,115c15,56,41,110,78,165c36,54,45,69,61,105c9,19,27,48,40,63
		c13,16,24,33,24,37c0,5,18,38,40,72c22,35,40,68,40,74c0,7,11,19,24,27c13,9,38,45,55,81c16,35,35,67,41,71c5,3,19,26,30,50
		c11,25,29,49,40,55s27,25,36,43s46,63,81,101c35,39,71,85,78,103c8,18,18,33,24,33c5,0,12,14,16,31c4,18,15,33,26,36
		c10,3,21,14,24,24c4,10,19,26,36,36c16,9,29,20,29,24s15,22,33,40c17,19,39,46,47,61c32,56,97,145,138,187c23,25,42,48,42,51
		c0,14,39,52,57,54c12,2,17,11,16,24c-2,13,5,26,17,32c11,6,20,16,20,23s16,28,35,47s35,40,35,47s7,13,15,13c9,0,20,11,25,24
		s17,27,27,30s27,20,38,36c15,24,25,29,43,25c19-5,22-1,22,24c0,20,7,34,19,41c11,5,23,19,26,30s11,20,17,20c12,0,78,68,103,106
		c8,13,28,30,44,38c16,9,41,35,55,60c16,27,50,61,86,87c33,23,62,50,65,60s14,21,24,24s30,18,45,34l28,29l-32,69c-17,37-39,74-48,81
		C6775,4001,6720,4003,6680,3990z"/>
	<path class="st0" d="M19845,3970c-39-28-111-70-120-70c-3,0-5,11-5,25c0,21-5,25-29,25c-15,0-40-9-54-20s-29-20-34-20s-27-18-48-40
		s-45-40-53-40c-16,0-284-268-367-367c-33-40-90-104-127-143c-38-38-68-73-68-77c0-5-22-31-48-58c-26-28-64-72-85-97
		c-20-26-46-49-56-53c-11-3-22-17-25-30c-4-14-12-25-20-25c-7,0-46-41-87-92c-41-50-91-107-111-126c-21-20-38-41-38-47
		c0-7-29-42-65-79c-35-36-71-79-80-95c-8-16-24-32-34-36c-11-3-23-16-27-28c-7-21-70-99-146-182c-21-22-38-43-38-48c0-4-11-12-24-17
		s-33-22-46-39l-21-31h32c18,0,42,8,53,18c21,17,21,17,2-5c-14-17-30-23-61-23c-22,0-46-5-52-11c-7-7-54-11-124-10
		c-65,0-118-4-125-10c-11-9-127-14-174-8c-9,1-27-1-41-4c-15-4-33-1-44,7c-17,12-17,14-1,38c18,27,55,48,86,48c11,0,20,6,20,13
		c0,18,63,77,82,77c8,0,21,7,28,15s20,15,30,15s25,11,34,25c23,35,7,134-29,181c-14,19-29,34-33,34c-4,1-48,3-98,5l-91,5l-44-41
		c-61-57-67-61-134-104c-33-22-77-56-97-77c-38-38-58-47-58-27c0,5-13,22-30,37c-29,27-34,28-122,25c-51-1-135-7-185-13
		c-51-6-98-8-104-4c-6,3-14,2-18-3c-3-5-24-14-45-20c-37-11-68-5-86,16s-60,31-136,32c-84,1-153-14-239-49c-22-10-44-16-48-14
		c-11,3-78-46-90-65c-4-7-21-13-37-13c-46,0-61-50-44-153c8-47,30-59,113-64c56-3,68,0,98,23c19,14,40,23,48,21c7-3,28-31,46-61
		c19-31,39-56,45-56s17-7,24-15c14-16,65-12,85,6c5,5,17,9,26,9s22,6,28,14c6,7,38,19,71,25c33,7,72,22,87,35c16,13,53,28,83,34
		s96,21,145,32c50,11,104,18,121,15c22-4,33-1,37,9c10,24,65-2,72-35c3-14,21-41,40-59c19-19,35-38,35-42c0-16,45-70,65-79
		c11-5,27-13,35-18c55-32,121-51,185-52c109-2,207,7,215,20c4,7,24,12,46,11c51-1,170,17,191,28c9,5,23,7,33,5c9-2,22,3,29,11
		c8,9,19,16,26,16c8,0,27,12,44,26c20,17,37,23,50,19c11-3,22-2,25,4c3,5,30,14,58,21c29,6,76,16,103,23c31,7,64,24,88,44
		c20,18,47,33,60,33c23,0,117,85,117,106c0,6,41,57,90,113c50,56,90,106,90,111c0,31,78-25,96-69c10-24,132-141,147-141
		c10,0,115-68,119-77c10-25,99-70,126-64c8,1,21-4,30-12c10-8,66-27,125-42c85-20,112-23,123-14s26,8,67-4c28-8,70-13,92-11
		c81,8,101,8,113,0c6-4,20-2,31,4c11,5,28,10,37,10c10,0,26,8,37,17c11,10,35,18,55,18c35,0,37,1,44,45c7,40,5,49-19,84
		c-29,41-78,74-110,75c-88,3-140,7-149,13c-5,4-27,3-47-2c-22-4-55-4-79,2c-24,5-66,11-93,12c-28,2-65,10-82,20c-18,9-43,16-57,16
		s-37,11-52,25c-14,13-42,30-60,37c-50,18-41,68,13,68c13,0,23,5,23,10c0,6,24,26,54,45s57,39,61,45c3,5,16,10,29,10s31,9,41,20
		s26,20,35,20c10,0,21,8,24,17c5,12,9,14,18,5c18-18,34-14,44,9c10,22,71,49,112,49c12,0,25,6,28,14s31,24,62,37c31,12,66,28,77,36
		c11,7,29,13,40,13c12,0,36,11,55,25s46,25,61,25s34,7,43,15c8,8,22,15,31,15s23,7,31,15c9,9,34,15,60,15c31,0,44,4,44,14
		c0,16,54,41,69,32c6-4,19,2,31,14c11,11,31,20,44,20c14,0,28,4,31,10c8,12,94,51,121,54c11,1,34,11,50,22c37,25,101,54,119,54
		c8,0,31,9,51,20c20,12,59,27,87,34c60,16,89,28,137,58c19,11,55,27,80,34c83,24,174,57,240,87c36,16,83,37,105,47
		c72,32,95,40,124,40c31,0,61,34,61,69c0,20-43,61-65,61c-6,0-20,9-30,20c-15,16-26,18-84,13c-36-3-71-10-78-15c-6-5-35-8-65-7
		c-58,1-106-9-186-39c-33-13-69-19-99-17c-42,3-78-6-148-35c-11-5-44-16-73-25c-29-10-56-23-59-31s-19-14-38-14s-37-4-40-10
		c-3-5-15-10-25-10c-11,0-34-9-52-20s-40-20-49-20s-30-7-47-16c-18-8-42-14-55-12c-14,1-33-7-47-21c-41-39-83-61-117-61
		c-17,0-34-4-37-9c-5-7-50-22-81-26c-5,0-20-6-32-13s-28-12-35-12s-44-16-83-35c-38-19-80-35-92-35s-58-18-102-40
		c-43-22-84-40-89-40s-37-13-70-30c-34-16-67-30-74-30s-39-13-73-29c-33-16-76-36-95-45s-42-20-50-25c-8-6-64-34-125-64
		c-60-29-122-61-137-71c-27-18-46-8-32,17c11,17,120,142,172,194c23,24,42,50,42,56c0,7,39,54,88,104c134,141,236,253,246,271
		c5,9,30,40,56,67c25,28,55,65,65,83c11,17,23,32,28,32s26,17,47,38c75,74,120,112,131,112c24,0,124,91,146,133c20,40,9,75-38,125
		C19921,4008,19900,4010,19845,3970z"/>
	<path class="st0" d="M11588,3895c-9-10-120-36-146-36c-13,1-34-6-47-15s-28-13-33-10s-30-6-57-19c-27-14-61-25-76-25s-30-4-33-9
		c-3-4-31-11-63-15c-31-4-61-10-67-15s-24-11-41-14c-16-3-52-11-80-17c-27-6-63-14-80-17c-16-3-39-12-50-19c-11-8-31-14-46-14
		c-14,0-55-9-90-20s-70-18-77-15c-8,3-20,1-26-3c-6-5-31-14-56-21c-172-45-234-59-242-55c-5,3-17-1-27-10c-11-10-38-17-67-18
		c-27-1-58-6-69-11c-22-11-54-18-100-21c-16-1-61-17-98-34c-37-18-73-30-78-26c-6,3-31-2-55-11c-26-10-58-15-73-12c-17,4-36,0-47-8
		s-30-15-44-15s-34-7-44-15c-11-9-41-15-69-15c-33,0-61-7-85-22c-36-22-55-26-162-33c-36-3-90-12-120-20c-100-29-115-32-149-34
		c-18-1-41-5-50-10s-41-12-71-16s-59-10-65-14c-16-12-174-45-181-38c-4,3-19,0-34-8s-29-12-32-10c-2,3-20,0-39-6s-50-13-69-15
		c-104-10-245-35-275-50c-19-9-46-14-60-11c-14,2-28,0-31-4c-3-5-22-9-43-9s-55-7-74-15c-20-8-49-15-65-15s-35-7-43-16
		c-7-9-21-13-32-10s-28,1-37-4s-39-11-66-14c-68-7-91-15-97-36c-3-10-18-20-40-24c-40-7-52-20-59-59c-4-23-1-30,17-37
		c13-5,25-15,27-22c4-11,11-11,40,0c41,14,122,16,148,2c13-7,21-6,29,4c6,7,30,13,53,14c24,1,66,6,93,11c28,5,57,10,65,10
		c59,0,144,11,155,21c8,6,22,9,33,6c10-4,40,0,67,9c38,11,52,12,63,2c11-9,17-8,26,4c10,15,56,29,101,31c11,0,58,7,105,16
		c47,8,114,19,150,23c179,25,270,42,354,69c52,16,63,16,79,5c15-10,25-11,39-4c10,6,44,12,75,14c31,3,63,11,72,19c12,11,21,12,34,4
		c13-7,30-5,59,7c31,12,43,13,54,4s17-9,28,0c27,23,129,45,241,54c17,1,37,6,45,12c8,5,47,15,85,21c39,7,95,19,125,28s89,23,130,31
		c41,9,83,20,93,25c13,8,27,3,60-17c23-15,51-32,62-39c31-16,94-24,101-13c3,6,12,8,19,5c8-3,28-1,45,4c20,6,40,5,55-2
		c19-8,28-8,41,3c9,8,41,15,72,16c32,1,61,8,71,17s57,23,107,33c49,9,96,22,105,30c8,7,27,13,40,13c14,0,34,6,45,14s31,14,44,15
		c47,1,105,14,125,27c11,8,29,14,41,14s27,7,34,15s21,15,32,15c10,0,60,16,109,35c50,19,99,35,109,35c11,0,22,4,25,10
		c6,10,56,34,92,45c11,3,28,17,37,30c9,14,22,25,29,25s18,9,25,20s21,20,31,20c11,0,23,5,26,10c4,6,21,17,40,24c43,18,69,57,62,93
		c-10,55-35,108-63,131c-25,22-33,23-93,17c-93-9-114-10-132-1C11601,3897,11591,3898,11588,3895z"/>
	<path class="st0" d="M13665,3872c-16-8-37-19-45-24c-15-8-40-20-90-41c-14-6-32-16-40-22c-8-7-40-22-70-34c-29-13-71-34-92-47
		s-45-24-53-24c-9,0-35-9-57-20c-23-11-47-20-54-20c-6,0-25-7-40-15c-16-8-36-15-44-15c-27,0-151-50-251-101c-20-11-44-19-52-19
		s-17-7-21-15c-3-9-18-15-39-15c-22,0-41-8-53-21c-10-12-35-29-54-39s-46-30-59-44c-14-14-30-26-36-26c-7,0-35-24-63-54l-51-54l5-93
		c5-81,11-104,40-166c19-40,39-73,44-73c4,0,16-13,27-29c60-94,232-268,298-301c17-8,45-25,62-37c17-13,37-23,45-23c7,0,42-23,77-50
		c36-28,71-50,78-50c8,0,27-7,43-15c43-22,49-79,17-159c-14-33-28-68-31-76s-16-31-28-51c-13-19-33-51-45-70s-33-50-48-69
		c-14-19-42-60-61-90s-43-63-54-75c-11-11-43-51-70-88c-27-38-61-77-75-89c-14-11-32-32-39-46c-8-15-31-45-52-67
		c-66-71-132-139-173-179c-22-21-43-52-47-69c-8-38-112-137-143-137c-6,0-15-8-20-18s-28-31-50-47c-47-32-57-60-16-45
		c55,21,33-37-33-86c-20-15-44-33-52-41c-8-7-35-29-60-48c-25-20-56-46-70-59c-14-12-42-33-64-46c-21-12-47-37-57-54
		c-13-22-31-34-61-42c-38-9-43-14-41-37c1-20-5-28-28-36c-16-5-32-17-35-26c-3-8-12-15-20-15c-7,0-19-10-26-23c-38-67-55-93-76-115
		c-18-18-22-31-17-52c9-39,29-55,45-35c7,8,18,15,24,15c7,0,22,13,34,30c14,19,31,30,47,30c13,0,30,7,37,16c7,8,22,23,33,32
		c10,9,33,32,50,50c17,17,39,32,48,32s22,9,30,21c21,29,79,70,93,65c6-2,24,9,40,25c15,16,36,29,45,29c10,0,28,11,41,23
		c28,29,144,117,154,117c4,0,37,24,73,53c36,30,93,74,126,99c33,26,92,76,130,114c39,37,90,82,115,101c61,47,278,270,296,304
		c7,15,27,37,43,48c16,12,35,37,41,56s17,35,24,35c8,0,29,21,49,48c20,26,51,67,69,91s45,57,61,74c15,17,27,37,27,44s11,23,25,35
		s25,27,25,34s11,26,25,42c14,17,25,39,25,49c0,11,9,38,21,62c26,55,42,147,29,172c-6,10-10,37-10,61c0,91-49,195-132,276
		c-30,30-173,124-248,163c-32,17-64,37-71,45c-6,8-18,14-25,14c-17,0-53,22-125,78c-58,44-129,138-129,169c1,10,19,36,40,58
		c22,22,40,43,40,47s19,13,43,20c23,7,48,20,55,30s18,15,24,12c5-4,22,2,36,13c15,11,42,23,61,26c19,4,40,12,48,19
		c18,15,112,47,138,48c11,0,40,11,64,25c23,14,50,25,58,25c7,0,28,8,46,17s39,16,48,15c9-2,22,4,29,13c7,8,20,15,29,15
		c30,0,121,38,151,64c17,14,46,28,64,32c19,3,44,17,57,30c17,19,33,24,68,24c42,0,50,4,81,40c19,22,43,40,53,40c15,0,18,5,12,23
		c-3,12-9,33-11,47c-15,77-28,109-52,127c-31,23-118,36-146,21c-12-7-22-6-29,1C13722,3894,13702,3892,13665,3872z"/>
	<path class="st0" d="M15756,2581c-4-6-13-10-19-8c-7,2-32-7-56-20c-31-17-47-21-54-14c-15,15-57,14-76-3c-18-14-116-36-166-36
		c-18,0-38-7-45-15s-18-15-25-15c-23,0-47-37-37-57c14-27,32-87,32-106c0-9,6-17,13-17c8,0,24-11,37-25s32-25,42-25c9,0,25-11,34-25
		c14-22,22-25,48-19c17,3,35,10,41,15c5,5,17,9,27,9s28,5,41,12c48,24,57,28,77,28c11,0,20,4,20,10c0,5,16,18,35,27
		c46,24,118,121,109,148c-3,11-9,37-11,59c-4,26-11,40-23,43c-10,3-22,14-27,26C15766,2588,15761,2590,15756,2581z"/>
	<path class="st0" d="M2445,2479c-4-6-5-13-2-16c7-7,27,6,27,18S2453,2493,2445,2479z"/>
	<path class="st0" d="M9135,2458c-11-6-27-20-36-31c-16-19-19-19-40-6c-34,22-78,8-147-46c-35-27-67-45-83-45c-15,0-38-10-53-21
		c-15-12-43-25-63-29c-40-10-56,3-93,73c-16,29-26,37-48,37c-15,0-33-4-41-9c-9-6-23-5-37,1c-16,8-36,7-69-1c-36-9-50-9-61,0
		s-24,9-53,0c-21-6-48-11-60-11c-23,0-26-1-118-48c-35-17-70-29-78-26c-8,4-15,1-15-6c0-8-9-10-25-6s-34,1-47-8c-12-9-31-13-43-10
		c-21,5-99-28-111-47c-3-5-16-9-30-9c-13,0-24-4-24-9c0-12-57-29-92-27c-17,0-43,17-70,44c-24,23-50,42-58,42c-7,0-21,7-31,16
		c-13,11-22,13-36,6c-13-7-24-6-36,3s-28,11-46,5c-16-4-40-6-54-3c-19,4-28-1-36-16c-16-30-74-51-137-51c-39,0-54-4-54-13
		c0-21-31-44-70-51c-19-3-59-16-87-27l-53-21v-47c0-74,40-139,118-192c51-34,79-36,132-9c22,11,43,20,49,20c13,0,161,102,161,112
		c0,4,14,15,31,24l32,16l56-56c31-31,61-56,67-56s22-9,36-19c21-17,39-20,108-19c46,1,102,8,123,15c38,13,42,12,78-12
		c34-24,43-26,96-19c62,7,83,17,154,76c26,21,50,38,54,38s24,14,45,30c24,19,50,30,69,30c17,0,31,4,31,10c0,13,41,50,57,50
		c7,0,29-23,49-50c74-103,156-132,289-103c39,8,78,19,87,24c10,5,24,9,32,9c7,0,19,6,25,14c7,8,27,18,44,21c18,4,39,13,47,20
		s26,16,40,20s34,15,45,25c11,9,43,30,72,46c38,21,58,40,74,71c12,23,32,52,45,64c30,28,31,72,4,106c-11,14-20,34-20,44
		c0,17-48,59-67,59C9159,2470,9146,2464,9135,2458z"/>
	<path class="st0" d="M9898,2434c-40-28-133-64-167-64c-13,0-51-22-87-50s-69-48-75-44c-6,3-24,0-40-6c-22-9-33-10-41-2s-17,8-30,1
		c-10-6-26-9-36-7c-9,1-32-4-50-12c-28-13-32-19-27-40c3-14,9-38,12-55c3-16,11-37,17-45c7-8,19-32,29-52c10-23,24-38,34-38
		c9,0,26-9,38-20c15-14,41-21,100-26c72-6,85-4,135,19c30,14,66,36,80,48c14,13,43,33,65,43c22,11,63,35,92,53c28,18,62,33,75,33
		c24-1,91-57,121-103c11-18,26-27,43-27c14,0,41-7,59-16c23-11,39-13,52-6c10,5,32,8,48,5c17-3,57,5,90,16c33,12,69,21,80,21
		s26,9,33,20s17,20,22,20c6,0,28,11,50,25s51,25,66,25c36,0,74,33,96,82c16,36,17,43,4,57c-8,9-16,29-18,44c-2,21-14,34-41,50
		l-39,22l-20-25c-16-20-28-24-59-22c-21,2-56,3-76,3c-21,0-53-1-72-1s-41-6-50-13c-17-15-96-37-132-37c-12,0-41,17-64,38
		c-55,50-102,74-150,78c-22,2-61,10-87,17C9933,2457,9930,2457,9898,2434z"/>
	<path class="st0" d="M6600,2346c-8-8-33-21-55-29s-48-18-57-22c-13-5-18-3-18,8c0,24-19,31-38,14c-9-8-22-12-29-10
		c-6,2-42-12-80-31c-160-81-188-88-280-65c-64,15-84,16-116,7c-30-9-43-9-58,0c-17,11-23,9-44-15c-26-30-31-48-15-58
		c5-3,14-24,20-46c12-44,61-102,106-125c16-9,56-26,89-39c51-21,67-23,95-15c19,6,69,12,112,14c42,3,85,9,95,15c10,5,30,12,44,15
		s42,17,63,31c20,14,41,25,47,25c13,0,89,51,89,60c0,4,12,11,26,14c36,9,104,56,104,72c0,7,9,15,20,19c27,8,42,64,23,86
		c-7,9-11,23-8,31C6750,2340,6632,2378,6600,2346z"/>
	<path class="st0" d="M4663,2321c-9-25-17-29-69-37c-33-4-69-7-82-6c-13,2-48-9-77-23c-82-38-108-41-150-15c-28,17-52,23-101,23
		c-41,0-68,4-75,13c-12,14-96,9-113-7c-6-5-26-9-46-9c-47,0-150-19-173-31c-13-7-23-7-32,1c-15,12-65-3-65-20c0-6-15-17-34-25
		s-37-19-41-25c-3-5-19-10-34-10c-16,0-34-7-41-15s-23-15-36-15c-27,0-40-16-26-33c6-7,12-35,14-62c3-47,6-52,61-96
		c73-58,108-66,179-39c29,11,60,20,69,20s24,9,34,20s22,20,27,20s27,12,49,26c23,14,43,23,46,21c2-3,26,4,51,16c36,16,68,21,139,21
		c81,1,95-2,123-22c18-14,40-22,50-19c11,3,24-1,30-8c16-20,79-26,104-10c11,8,40,17,64,21c23,4,42,10,42,14c0,10,114,77,155,90
		c19,6,37,16,40,21c4,5,17,9,31,9s27,7,30,15c4,8,18,15,33,15c20,1,33,11,55,47l30,46l-21,17c-12,9-23,27-25,41c-3,21-8,24-63,25
		c-33,1-73-3-89-9c-23-9-31-8-40,6C4675,2347,4673,2345,4663,2321z"/>
	<path class="st0" d="M18055,1960c-3-5,1-10,9-10s18,5,21,10c3,6-1,10-9,10S18058,1966,18055,1960z"/>
	<path class="st0" d="M5440,1245c0-8,5-15,10-15c6,0,10,7,10,15s-4,15-10,15C5445,1260,5440,1253,5440,1245z"/>
</g>
<rect x="1683.6" y="303.4" class="st1" width="1654.5" height="288"/>
<text transform="matrix(1 0 0 1 1634.5616 428.1416)" class="st2 st3 st4">Player</text>
</svg>
